<svg width="880" height="633" viewBox="0 0 880 633" fill="none" xmlns="http://www.w3.org/2000/svg">
<path d="M981.101 522.215C981.101 522.215 1102.74 239.788 846.919 256.563C591.102 273.339 765.9 -140.745 440.546 52.4942C115.193 245.946 283.824 -119.935 47.9954 73.0923M978.974 524.338C978.974 524.338 1097.63 240.637 843.091 259.536C588.55 278.223 759.307 -134.162 438.632 60.776C117.957 256.139 280.634 -114.626 47.1449 79.0381M976.635 526.462C976.635 526.462 1092.32 241.699 839.264 262.509C585.998 283.107 752.503 -127.579 436.719 69.0576C120.722 266.544 277.231 -109.317 46.2942 84.7716M974.509 528.585C974.509 528.585 1087.21 242.761 835.436 265.27C583.447 287.779 745.911 -121.209 434.805 76.9146C123.486 276.312 274.042 -104.433 45.2309 90.2927M972.169 530.709C972.169 530.709 1081.9 243.822 831.396 268.243C580.895 292.663 739.106 -114.626 432.678 85.1963C125.825 286.717 270.639 -99.1244 44.1677 96.0262M970.043 532.832C970.043 532.832 1076.79 244.884 827.568 271.216C578.343 297.76 732.514 -108.043 430.764 93.478C128.589 296.91 267.237 -93.8156 43.3172 101.972M967.704 535.168C967.704 535.168 1071.48 246.158 823.74 274.401C575.791 302.644 725.284 -101.885 428.851 101.76C130.929 306.678 264.047 -88.5068 42.4666 107.705M965.577 537.291C965.577 537.291 1066.59 247.22 819.913 277.374C573.239 307.528 718.479 -95.5144 426.937 110.041C133.481 316.871 260.645 -83.198 41.616 113.439M963.451 539.415C963.451 539.415 1061.48 248.069 816.085 280.347C570.9 312.412 711.887 -88.9315 425.023 118.323C136.032 326.852 257.242 -78.1016 40.7654 119.172M961.112 541.538C961.112 541.538 1056.17 249.131 812.045 283.32C567.923 317.508 704.869 -82.561 422.896 126.392C138.584 337.044 253.84 -72.7928 39.7022 124.906M958.985 543.662C958.985 543.662 1051.06 250.193 808.43 286.292C565.797 322.392 698.065 -75.9781 420.982 134.674C141.136 347.237 250.65 -67.4841 38.8516 130.852M956.646 545.785C956.646 545.785 1045.75 251.255 804.389 289.265C563.032 327.276 691.472 -69.3952 419.069 142.743C143.9 357.218 247.248 -62.3877 38.0011 136.373M954.52 548.121C954.52 548.121 1040.64 252.529 800.562 292.238C560.48 332.16 684.668 -63.0247 417.155 151.025C146.452 367.623 244.058 -57.079 37.1504 142.319M952.18 550.245C952.18 550.245 1035.33 253.591 796.521 295.211C557.928 337.044 677.65 -56.4418 415.028 159.307C149.004 377.816 240.656 -51.7701 36.087 148.052M950.054 552.368C950.054 552.368 1030.22 254.652 792.906 298.184C555.589 341.929 671.271 -49.859 413.327 167.376C151.768 387.796 237.466 -46.6736 35.4491 153.786M947.715 554.492C947.715 554.492 1024.91 255.714 788.866 301.157C552.825 346.813 664.253 -43.2761 411.201 175.658C154.108 397.989 234.064 -41.3649 34.3859 159.519M945.588 556.615C945.588 556.615 1019.8 256.563 785.038 304.13C550.273 351.697 657.661 -36.9055 409.287 183.939C156.872 408.394 230.661 -36.2685 33.5353 165.465M943.249 558.739C943.249 558.739 1014.49 257.625 780.998 307.103C547.509 356.581 650.644 -30.3227 407.16 192.009C159.211 418.375 227.259 -31.1721 32.2595 170.986M941.123 560.862C941.123 560.862 1009.38 258.687 777.383 310.076C545.382 361.465 644.052 -23.7399 405.459 200.29C162.188 428.568 224.069 -25.8634 31.6215 176.932M938.784 563.198C938.784 563.198 1004.07 259.961 773.342 313.261C542.618 366.561 637.247 -16.9446 403.332 208.784C164.527 439.185 220.667 -20.3421 30.5582 182.878M936.657 565.322C936.657 565.322 998.963 261.023 769.515 316.234C540.066 371.445 630.442 -10.3616 401.419 216.854C167.292 449.166 217.264 -15.2457 29.7076 188.611M934.318 567.445C934.318 567.445 993.647 262.085 765.687 318.995C537.514 376.117 623.85 -3.9911 399.505 224.923C169.844 459.359 214.075 -10.1493 28.857 194.132M932.192 569.569C932.192 569.569 988.544 263.146 761.859 321.968C535.175 381.001 617.045 2.59171 397.591 233.205C172.608 469.551 210.885 -4.84053 28.0065 200.078M929.852 571.692C929.852 571.692 983.227 263.996 757.819 324.94C532.411 385.885 610.24 9.1747 395.464 241.274C174.947 479.532 207.27 0.255868 26.9433 205.599M927.726 573.816C927.726 573.816 978.124 265.058 753.991 327.913C529.859 390.769 603.435 15.7575 393.551 249.556C177.712 489.937 204.08 5.56472 26.0925 211.545M925.387 575.939C925.387 575.939 972.807 266.119 750.164 330.886C527.307 395.653 596.843 22.3404 391.637 257.838C180.476 500.342 200.678 10.8734 25.242 217.278M923.26 578.275C923.26 578.275 967.704 267.393 746.336 334.071C524.968 400.75 590.039 29.1355 389.723 266.119C183.028 510.535 197.488 16.1822 24.3914 223.224M920.921 580.399C920.921 580.399 962.388 268.455 742.296 337.044C522.203 405.634 583.234 35.7185 387.596 274.401C185.58 520.94 193.873 21.4909 23.3282 228.958M918.795 582.522C918.795 582.522 957.284 269.517 738.468 340.017C519.652 410.518 576.642 42.3014 385.683 282.683C188.131 531.133 190.683 26.7998 22.4775 234.904M916.455 584.646C916.455 584.646 951.968 270.579 734.64 342.99C517.1 415.402 569.837 48.8842 383.769 290.752C190.896 541.326 187.281 31.8961 21.627 240.425M914.329 586.769C914.329 586.769 947.077 271.64 730.813 345.751C514.548 420.074 563.245 55.2547 381.855 298.821C193.66 551.519 184.091 36.9926 20.7764 246.158M911.99 588.893C911.99 588.893 941.761 272.49 726.772 348.724C511.996 424.958 556.44 61.8375 379.728 306.891C196.212 561.499 180.476 42.0889 19.5005 251.679M909.863 591.229C909.863 591.229 936.657 273.764 722.944 351.909C509.445 430.054 549.635 68.8452 377.815 315.385C198.764 572.117 177.286 47.6101 18.6498 257.838M907.524 593.352C907.524 593.352 931.341 274.826 719.117 354.882C506.893 434.938 543.043 75.4282 375.901 323.666C201.528 582.522 174.097 52.7067 17.7993 263.571M905.398 595.476C905.398 595.476 926.237 275.887 715.289 357.855C504.341 439.822 536.451 82.011 373.987 331.736C204.293 592.503 170.694 57.803 16.9486 269.092M903.059 597.599C903.059 597.599 920.921 276.949 711.249 360.828C501.577 444.706 529.646 88.594 371.86 340.017C206.845 602.908 167.292 63.1117 15.8854 275.038M900.932 599.723C900.932 599.723 915.817 278.011 707.421 363.801C499.025 449.59 523.054 95.1767 369.947 348.299C209.609 613.313 163.889 68.4205 15.0348 280.771M898.593 601.846C898.593 601.846 910.501 279.073 703.593 366.774C496.686 454.474 516.249 101.972 368.033 356.368C212.373 623.506 160.7 73.5169 14.1843 286.505M896.466 603.97C896.466 603.97 905.398 279.922 699.766 369.747C494.134 459.359 509.657 108.555 366.119 364.65C215.138 633.911 157.297 78.8258 13.3336 292.238M894.127 606.305C894.127 606.305 900.081 281.196 695.725 372.719C491.369 464.243 502.852 115.138 363.992 372.932C217.69 644.104 153.895 84.1344 12.2703 298.184M892.001 608.429C892.001 608.429 894.978 282.258 692.11 375.692C489.243 469.127 496.473 121.721 362.291 381.001C220.667 654.297 150.705 89.2309 11.6325 303.705M889.662 610.552C889.662 610.552 889.662 283.32 688.07 378.665C486.478 474.011 489.668 128.516 360.165 389.283C223.219 664.702 147.303 94.5396 10.5692 309.651M887.535 612.676C887.535 612.676 884.558 284.381 684.242 381.638C483.927 478.895 483.076 135.099 358.251 397.564C225.983 675.107 144.113 99.8484 9.71852 315.385M885.196 614.8C885.196 614.8 879.242 285.443 680.202 384.611C481.162 483.779 476.484 141.682 356.124 405.634C228.535 685.3 140.498 104.945 8.65527 321.118M883.069 616.923C883.069 616.923 874.138 286.505 676.587 387.584C478.823 488.663 470.104 148.477 354.21 413.915C231.512 695.493 137.308 110.254 7.80475 326.852M880.73 619.046C880.73 619.046 868.822 287.567 672.547 390.557C476.271 493.547 463.3 155.06 352.084 422.197C234.064 705.898 133.693 115.562 6.52878 332.797M878.604 621.382C878.604 621.382 863.718 288.628 668.719 393.742C473.719 498.644 456.708 161.855 350.17 430.479C236.828 716.303 130.503 120.871 5.67826 338.531M876.265 623.506C876.265 623.506 858.402 289.69 664.679 396.715C470.955 503.74 449.903 168.438 348.044 438.761C239.593 726.708 126.888 126.18 4.61501 344.477M874.138 625.629C874.138 625.629 853.299 290.752 661.064 399.476C468.616 508.199 444.161 175.021 346.343 446.617C242.995 736.689 123.911 131.064 3.97709 349.785M871.799 627.753C871.799 627.753 847.982 291.814 657.023 402.448C466.064 513.083 437.356 181.604 344.216 454.899C245.547 747.094 120.296 136.373 2.91384 355.731M869.673 629.876C869.673 629.876 842.879 292.876 653.196 405.422C463.512 517.968 430.552 188.187 342.302 463.181C248.311 757.287 117.106 141.469 2.06319 361.465M867.333 632C867.333 632 837.562 293.937 649.155 408.394C460.748 522.851 423.747 194.769 340.176 471.25C250.863 767.48 113.704 146.566 0.999947 367.198" stroke="url(#paint0_linear)" stroke-width="0.2394" stroke-miterlimit="10"/>
<defs>
<linearGradient id="paint0_linear" x1="887.5" y1="392.5" x2="41" y2="222" gradientUnits="userSpaceOnUse">
<stop stop-color="#7F7F7F"/>
<stop offset="1" stop-color="#7F7F7F" stop-opacity="0"/>
</linearGradient>
</defs>
</svg>
